<svg width="23" height="23" viewBox="0 0 23 23" fill="none" xmlns="http://www.w3.org/2000/svg">
<g clip-path="url(#clip0_1_525)">
<path d="M6.51667 5.3667C5.66089 5.3667 4.81348 5.53526 4.02285 5.86275C3.23221 6.19024 2.51382 6.67026 1.90869 7.27539C1.30356 7.88052 0.823545 8.59891 0.496052 9.38955C0.168559 10.1802 0 11.0276 0 11.8834C0 12.7391 0.168559 13.5865 0.496052 14.3772C0.823545 15.1678 1.30356 15.8862 1.90869 16.4913C2.51382 17.0965 3.23221 17.5765 4.02285 17.904C4.81348 18.2315 5.66089 18.4 6.51667 18.4C7.37245 18.4 8.21985 18.2315 9.01049 17.904C9.80113 17.5765 10.5195 17.0965 11.1246 16.4913C11.7298 15.8862 12.2098 15.1678 12.5373 14.3772C12.8648 13.5865 13.0333 12.7391 13.0333 11.8834C13.0333 11.0276 12.8648 10.1802 12.5373 9.38955C12.2098 8.59891 11.7298 7.88052 11.1246 7.27539C10.5195 6.67026 9.80113 6.19024 9.01049 5.86275C8.21985 5.53526 7.37245 5.3667 6.51667 5.3667ZM16.8667 6.13337C16.4639 6.13337 16.0652 6.28209 15.6931 6.57106C15.321 6.86002 14.983 7.28357 14.6982 7.8175C14.4134 8.35144 14.1875 8.98531 14.0334 9.68294C13.8793 10.3806 13.8 11.1283 13.8 11.8834C13.8 12.6385 13.8793 13.3862 14.0334 14.0838C14.1875 14.7814 14.4134 15.4153 14.6982 15.9492C14.983 16.4832 15.321 16.9067 15.6931 17.1957C16.0652 17.4846 16.4639 17.6334 16.8667 17.6334C17.2694 17.6334 17.6682 17.4846 18.0402 17.1957C18.4123 16.9067 18.7504 16.4832 19.0351 15.9492C19.3199 15.4153 19.5458 14.7814 19.6999 14.0838C19.854 13.3862 19.9333 12.6385 19.9333 11.8834C19.9333 11.1283 19.854 10.3806 19.6999 9.68294C19.5458 8.98531 19.3199 8.35144 19.0351 7.8175C18.7504 7.28357 18.4123 6.86002 18.0402 6.57106C17.6682 6.28209 17.2694 6.13337 16.8667 6.13337ZM21.85 6.90003C21.545 6.90003 21.2525 7.42506 21.0368 8.35962C20.8212 9.29417 20.7 10.5617 20.7 11.8834C20.7 13.205 20.8212 14.4726 21.0368 15.4071C21.2525 16.3417 21.545 16.8667 21.85 16.8667C22.155 16.8667 22.4475 16.3417 22.6632 15.4071C22.8788 14.4726 23 13.205 23 11.8834C23 10.5617 22.8788 9.29417 22.6632 8.35962C22.4475 7.42506 22.155 6.90003 21.85 6.90003Z" fill="white"/>
</g>
<defs>
<clipPath id="clip0_1_525">
<rect width="23" height="23" fill="white"/>
</clipPath>
</defs>
</svg>
